<svg width="58" height="34" viewBox="0 0 78 54" fill="none" xmlns="http://www.w3.org/2000/svg">
<g clip-path="url(#clip0_264_1859)">
<path d="M29.4801 27C29.4801 28.7053 28.5544 30.3383 26.9105 31.543L14.9636 40.2988C14.7629 40.4459 14.5588 40.5852 14.3405 40.7142C13.8196 41.0315 13.2529 41.2972 12.6615 41.5113C11.4365 41.9576 10.0989 42.1795 8.76484 42.1795C6.52259 42.1795 4.27682 41.5526 2.56609 40.2962C-0.855364 37.7887 -0.855364 33.7204 2.56609 31.2102L8.31075 27L2.56609 22.7872C-0.855364 20.2797 -0.855364 16.2114 2.56609 13.7013C5.2941 11.7019 9.38436 11.2943 12.6615 12.4888C13.2599 12.7055 13.8301 12.9738 14.3581 13.2936C14.5658 13.4226 14.77 13.5568 14.9636 13.6987L15.4458 14.0521L26.9105 22.4545C28.5579 23.6618 29.4801 25.2974 29.4801 27Z" fill="black"/>
<path d="M29.4804 26.9996C29.4804 28.7048 28.5546 30.3378 26.9107 31.5425L14.9638 40.2983C14.7632 40.4454 14.559 40.5847 14.3408 40.7137C13.8198 41.031 13.2531 41.2967 12.6617 41.5108C11.8275 41.209 11.0496 40.804 10.3561 40.2957C6.93468 37.7882 6.93468 33.7199 10.3561 31.2098L16.1008 26.9996L10.3596 22.7868C6.9382 20.2792 6.9382 16.2109 10.3596 13.7008C11.0531 13.1926 11.831 12.7901 12.6617 12.4883C13.2601 12.705 13.8304 12.9733 14.3584 13.2932C14.5661 13.4222 14.7702 13.5563 14.9638 13.6982L15.4461 14.0516L26.9107 22.454C28.5581 23.6613 29.4804 25.2969 29.4804 26.9996Z" fill="black"/>
<path d="M78.0009 27C78.0009 41.8879 61.4744 54 41.1604 54H23.5779C18.9597 54 15.1721 51.3815 14.8377 48.0562C14.8166 47.8988 14.8096 47.7389 14.8096 47.5738C14.8096 44.0266 18.7344 41.1475 23.5779 41.1475H41.1639C51.8084 41.1475 60.4712 34.8013 60.4712 26.9974C60.4712 19.1962 51.8084 12.8473 41.1639 12.8473H23.5779C18.7379 12.8473 14.8096 9.97086 14.8096 6.42108C14.8096 6.25855 14.8166 6.09602 14.8377 5.93866C15.1721 2.61848 18.9561 0 23.5779 0H41.1639C61.4779 0 78.0009 12.1121 78.0009 27Z" fill="black"/>
<path d="M15.4471 14.0574C15.0493 13.8356 14.6832 13.5776 14.3594 13.299C14.5671 13.428 14.7712 13.5621 14.9648 13.704L15.4471 14.0574Z" fill="#1F2937"/>
<path d="M14.9639 40.2989C14.7632 40.4459 14.5591 40.5852 14.3408 40.7142C14.6752 40.4227 15.0554 40.1596 15.4637 39.9326L14.9639 40.2989Z" fill="#1F2937"/>
<path d="M65.4014 27.0001C65.4014 39.4424 51.5923 49.5603 34.6188 49.5603H19.9193C17.941 49.5603 16.1529 48.9876 14.8328 48.0563C14.8117 47.8989 14.8047 47.7389 14.8047 47.5738C14.8047 44.0266 18.7295 41.1476 23.573 41.1476H41.159C51.8035 41.1476 60.4663 34.8013 60.4663 26.9975C60.4663 19.1962 51.8035 12.8474 41.159 12.8474H23.5766C18.7365 12.8474 14.8082 9.97093 14.8082 6.42115C14.8082 6.25863 14.8152 6.0961 14.8364 5.93874C16.1564 5.00743 17.9445 4.43472 19.9228 4.43472H34.6188C51.5923 4.43988 65.4014 14.5578 65.4014 27.0001Z" fill="black"/>
</g>
<defs>
<clipPath id="clip0_264_1859">
<rect width="78" height="54" fill="white"/>
</clipPath>
</defs>
</svg>
