<svg width="42" height="34" viewBox="0 0 42 34" fill="none" xmlns="http://www.w3.org/2000/svg">
<g clip-path="url(#clip0_331_1758)">
<path d="M15.8739 17C15.8739 18.0737 15.3754 19.1018 14.4903 19.8604L8.05731 25.3733C7.94928 25.4659 7.83934 25.5536 7.72183 25.6348C7.44131 25.8346 7.13615 26.0019 6.81773 26.1367C6.15813 26.4177 5.43788 26.5574 4.71953 26.5574C3.51216 26.5574 2.3029 26.1627 1.38174 25.3717C-0.46058 23.7928 -0.46058 21.2313 1.38174 19.6509L4.47502 17L1.38174 14.3475C-0.46058 12.7687 -0.46058 10.2071 1.38174 8.62668C2.85067 7.36784 5.05312 7.1112 6.81773 7.86325C7.13994 7.99969 7.447 8.16862 7.73131 8.37004C7.84313 8.45125 7.95307 8.53572 8.05731 8.62505L8.31698 8.84758L14.4903 14.138C15.3773 14.8981 15.8739 15.9279 15.8739 17Z" fill="black"/>
<path d="M15.8737 17C15.8737 18.0737 15.3752 19.1019 14.4901 19.8604L8.05714 25.3733C7.94911 25.4659 7.83917 25.5536 7.72166 25.6348C7.44114 25.8346 7.13598 26.0019 6.81756 26.1367C6.36835 25.9467 5.94947 25.6917 5.57608 25.3717C3.73376 23.7929 3.73376 21.2313 5.57608 19.6509L8.66936 17L5.57797 14.3475C3.73565 12.7687 3.73565 10.2072 5.57797 8.62671C5.95136 8.30672 6.37025 8.05333 6.81756 7.86328C7.13977 7.99972 7.44683 8.16865 7.73114 8.37006C7.84296 8.45128 7.9529 8.53574 8.05714 8.62508L8.31681 8.84761L14.4901 14.138C15.3771 14.8982 15.8737 15.928 15.8737 17Z" fill="black"/>
<path d="M41.9997 17C41.9997 26.3739 33.1008 34 22.1625 34H12.6951C10.2083 34 8.16886 32.3513 7.9888 30.2576C7.97742 30.1585 7.97363 30.0578 7.97363 29.9538C7.97363 27.7204 10.087 25.9077 12.6951 25.9077H22.1644C27.8961 25.9077 32.5607 21.9119 32.5607 16.9984C32.5607 12.0865 27.8961 8.08905 22.1644 8.08905H12.6951C10.0889 8.08905 7.97363 6.27795 7.97363 4.0429C7.97363 3.94057 7.97742 3.83824 7.9888 3.73916C8.16886 1.64867 10.2064 0 12.6951 0H22.1644C33.1027 0 41.9997 7.62612 41.9997 17Z" fill="black"/>
<path d="M8.31712 8.8509C8.10294 8.71121 7.90582 8.54878 7.73145 8.37335C7.84327 8.45457 7.95321 8.53903 8.05745 8.62837L8.31712 8.8509Z" fill="#1F2937"/>
<path d="M8.05716 25.3734C7.94913 25.4659 7.83919 25.5537 7.72168 25.6349C7.90174 25.4513 8.10644 25.2856 8.32631 25.1427L8.05716 25.3734Z" fill="#1F2937"/>
<path d="M35.216 17.0001C35.216 24.8341 27.7804 31.2046 18.6408 31.2046H10.7257C9.66047 31.2046 8.69761 30.844 7.98684 30.2576C7.97547 30.1586 7.97168 30.0579 7.97168 29.9539C7.97168 27.7205 10.085 25.9077 12.6931 25.9077H22.1625C27.8941 25.9077 32.5587 21.912 32.5587 16.9984C32.5587 12.0865 27.8941 8.0891 22.1625 8.0891H12.695C10.0888 8.0891 7.97357 6.278 7.97357 4.04295C7.97357 3.94062 7.97737 3.83829 7.98874 3.73921C8.69951 3.15283 9.66237 2.79224 10.7276 2.79224H18.6408C27.7804 2.79548 35.216 9.16602 35.216 17.0001Z" fill="black"/>
</g>
<defs>
<clipPath id="clip0_331_1758">
<rect width="42" height="34" fill="white"/>
</clipPath>
</defs>
</svg>
